HIERARCHY
ROOT Hips
{
	OFFSET -0.001795 -0.223333 0.028219
	CHANNELS 6 Xposition Yposition Zposition Zrotation Yrotation Xrotation 
	JOINT LeftUpLeg
	{
		OFFSET 0.069520 -0.091406 -0.006815
		CHANNELS 3 Zrotation Yrotation Xrotation
		JOINT LeftLeg
		{
			OFFSET 0.034277 -0.375199 -0.004496
			CHANNELS 3 Zrotation Yrotation Xrotation
			JOINT LeftFoot
			{
				OFFSET -0.013596 -0.397961 -0.043693
				CHANNELS 3 Zrotation Yrotation Xrotation
				JOINT LeftToe
				{
					OFFSET 0.026358 -0.055791 0.119288
					CHANNELS 3 Zrotation Yrotation Xrotation
					End Site
					{
						OFFSET 0.000000 0.000000 0.000000
					}
				}
			}
		}
	}
	JOINT RightUpLeg
	{
		OFFSET -0.067670 -0.090522 -0.004320
		CHANNELS 3 Zrotation Yrotation Xrotation
		JOINT RightLeg
		{
			OFFSET -0.038290 -0.382569 -0.008850
			CHANNELS 3 Zrotation Yrotation Xrotation
			JOINT RightFoot
			{
				OFFSET 0.015774 -0.398415 -0.042312
				CHANNELS 3 Zrotation Yrotation Xrotation
				JOINT RightToe
				{
					OFFSET -0.025372 -0.048144 0.123348
					CHANNELS 3 Zrotation Yrotation Xrotation
					End Site
					{
						OFFSET 0.000000 0.000000 0.000000
					}
				}
			}
		}
	}
	JOINT Spine
	{
		OFFSET -0.002533 0.108963 -0.026696
		CHANNELS 3 Zrotation Yrotation Xrotation
		JOINT Spine1
		{
			OFFSET 0.005487 0.135180 0.001092
			CHANNELS 3 Zrotation Yrotation Xrotation
			JOINT Spine2
			{
				OFFSET 0.001457 0.052922 0.025425
				CHANNELS 3 Zrotation Yrotation Xrotation
				JOINT Neck
				{
					OFFSET -0.002778 0.213870 -0.042857
					CHANNELS 3 Zrotation Yrotation Xrotation
					JOINT Head
					{
						OFFSET 0.005152 0.064970 0.051349
						CHANNELS 3 Zrotation Yrotation Xrotation
						End Site
						{
							OFFSET 0.000000 0.000000 0.000000
						}
					}
				}
				JOINT LeftShoulder
				{
					OFFSET 0.078845 0.121749 -0.034090
					CHANNELS 3 Zrotation Yrotation Xrotation
					JOINT LeftArm
					{
						OFFSET 0.090977 0.030469 -0.008868
						CHANNELS 3 Zrotation Yrotation Xrotation
						JOINT LeftForeArm
						{
							OFFSET 0.259612 -0.012772 -0.027456
							CHANNELS 3 Zrotation Yrotation Xrotation
							JOINT LeftHand
							{
								OFFSET 0.249234 0.008986 -0.001171
								CHANNELS 3 Zrotation Yrotation Xrotation
								End Site
								{
									OFFSET 0.000000 0.000000 0.000000
								}
							}
						}
					}
				}
				JOINT RightShoulder
				{
					OFFSET -0.081759 0.118833 -0.038615
					CHANNELS 3 Zrotation Yrotation Xrotation
					JOINT RightArm
					{
						OFFSET -0.096012 0.032551 -0.009143
						CHANNELS 3 Zrotation Yrotation Xrotation
						JOINT RightForeArm
						{
							OFFSET -0.253742 -0.013329 -0.021401
							CHANNELS 3 Zrotation Yrotation Xrotation
							JOINT RightHand
							{
								OFFSET -0.255298 0.007772 -0.005559
								CHANNELS 3 Zrotation Yrotation Xrotation
								End Site
								{
									OFFSET 0.000000 0.000000 0.000000
								}
							}
						}
					}
				}
			}
		}
	}
}
MOTION
Frames: 13
Frame Time: 0.050000
0.003031 0.947369 -0.121481 0.415801 -3.304199 37.547445 9.181303 -0.162307 -52.023874 1.213071 -0.377239 6.022373 -4.842780 -0.373767 21.486459 0.000000 0.000000 0.000000 -3.363518 3.952545 -44.892844 -7.142397 0.383383 -2.298918 0.626054 -7.793080 22.374108 0.000000 0.000000 0.000000 -2.118425 -0.212164 30.073773 3.689483 -1.284782 -3.925030 -12.722405 8.324868 6.849454 19.181840 -6.705721 -23.227680 0.000000 0.000000 0.000000 19.659250 -39.107949 10.423343 23.475383 -50.984640 -15.445852 37.351420 -1.488485 0.128876 0.000000 0.000000 0.000000 -24.716071 17.092080 3.862488 16.309496 64.301272 8.902153 -50.007009 13.091621 -2.773405 0.000000 0.000000 0.000000 
0.002461 0.947231 -0.119607 0.214360 -3.359969 37.426482 9.550236 0.009883 -51.956685 1.021222 -0.361326 6.420772 -4.724439 -0.363114 21.113747 0.000000 0.000000 0.000000 -3.094155 4.023090 -44.615958 -7.030344 0.411833 -1.940773 0.500161 -7.871348 21.780454 0.000000 0.000000 0.000000 -2.313276 -0.123860 30.031219 3.607281 -1.249826 -3.987191 -12.348788 8.573491 7.034724 19.403503 -6.919392 -22.955835 0.000000 0.000000 0.000000 19.845728 -38.151016 10.176407 23.098343 -51.224757 -15.424397 40.089133 -2.036552 -0.052146 0.000000 0.000000 0.000000 -24.498345 16.821896 3.794493 16.666046 64.509539 9.212935 -53.410782 13.973884 -3.241197 0.000000 0.000000 0.000000 
0.002355 0.946675 -0.117151 -0.025947 -3.323369 37.070714 9.930864 0.159884 -51.693935 0.655076 -0.317395 6.882608 -4.578870 -0.417030 20.425411 0.000000 0.000000 0.000000 -3.046014 4.011782 -44.291931 -6.636478 0.435201 -1.431416 0.202630 -8.235662 21.260020 0.000000 0.000000 0.000000 -2.366057 -0.106110 30.125332 3.620851 -1.255843 -3.978625 -12.216294 9.029904 6.710172 19.567585 -7.198636 -22.192248 0.000000 0.000000 0.000000 18.715033 -38.336128 10.466711 21.996486 -50.803943 -14.864599 43.105669 -3.243564 -0.471090 0.000000 0.000000 0.000000 -23.468132 16.843960 3.896383 17.723524 64.425226 9.908973 -56.730928 15.107641 -3.816618 0.000000 0.000000 0.000000 
0.002764 0.946010 -0.114260 -0.283735 -3.301652 36.491709 10.000216 0.182080 -51.149293 0.547690 -0.303459 7.021531 -4.360964 -0.231811 20.041839 0.000000 0.000000 0.000000 -3.046274 3.969878 -43.747618 -6.168078 0.443998 -0.974631 -0.145006 -8.728921 20.890221 0.000000 0.000000 0.000000 -2.375490 -0.106250 30.370061 3.450463 -1.188231 -4.085048 -11.877938 9.761063 6.677711 19.490500 -7.394529 -21.372379 0.000000 0.000000 0.000000 18.062893 -38.206486 10.549650 21.160148 -51.136098 -14.753154 45.686718 -4.754998 -1.111338 0.000000 0.000000 0.000000 -22.855976 17.050637 3.938901 19.833438 64.502724 11.367274 -59.387185 15.232918 -3.912272 0.000000 0.000000 0.000000 
0.003456 0.945172 -0.111064 -0.365141 -3.104935 36.045652 10.083852 0.166459 -50.916366 0.326485 -0.280152 7.456081 -4.388020 -0.447670 19.517961 0.000000 0.000000 0.000000 -3.292336 3.845020 -43.430300 -5.730423 0.488268 -0.142700 -0.399602 -8.950854 20.272208 0.000000 0.000000 0.000000 -2.184144 -0.207465 30.246535 3.319653 -1.138202 -4.108847 -11.662063 10.146987 6.487737 19.593212 -7.519755 -21.068594 0.000000 0.000000 0.000000 16.643459 -38.151292 10.822294 19.593505 -51.412195 -14.230853 47.910375 -6.575476 -1.900942 0.000000 0.000000 0.000000 -22.013521 17.450739 4.116325 21.956099 64.890689 12.853656 -61.209642 15.010697 -3.813495 0.000000 0.000000 0.000000 
0.004105 0.944845 -0.107865 -0.305877 -3.007980 35.459521 9.997556 0.087628 -50.334816 0.040005 -0.237408 7.663433 -4.441600 -0.629318 19.208404 0.000000 0.000000 0.000000 -3.567258 3.712235 -42.983903 -5.165200 0.535155 0.933786 -0.750108 -9.278411 19.323311 0.000000 0.000000 0.000000 -2.155701 -0.234875 30.458813 3.334206 -1.127488 -4.447344 -11.312052 10.659002 6.481840 19.681751 -7.383892 -21.607427 0.000000 0.000000 0.000000 15.558537 -37.824489 10.939397 18.055707 -52.053587 -13.855022 50.427224 -8.062905 -2.684535 0.000000 0.000000 0.000000 -21.229361 17.636214 4.219432 24.889877 65.335432 14.937181 -63.029380 15.192576 -3.941414 0.000000 0.000000 0.000000 
0.004474 0.944457 -0.104686 -0.267608 -2.736665 35.058685 9.901554 -0.019144 -50.121137 -0.044314 -0.238397 8.173669 -4.638069 -1.150674 18.547751 0.000000 0.000000 0.000000 -3.796149 3.591994 -42.819080 -4.753857 0.594186 2.076686 -1.248128 -9.881539 18.484649 0.000000 0.000000 0.000000 -2.126343 -0.274601 30.187642 3.221497 -1.085067 -4.474016 -10.946246 10.819719 6.433723 19.373775 -7.101625 -21.964255 0.000000 0.000000 0.000000 14.613282 -37.461016 11.019720 17.181967 -52.687728 -13.705179 51.957240 -8.891129 -3.152101 0.000000 0.000000 0.000000 -20.900226 17.813375 4.276316 28.733352 66.140910 17.791681 -64.894358 14.461904 -3.616428 0.000000 0.000000 0.000000 
0.004542 0.944473 -0.101676 -0.165286 -2.424485 34.516852 9.731600 -0.171713 -49.749137 -0.292112 -0.201652 8.344045 -4.931174 -1.539564 18.599986 0.000000 0.000000 0.000000 -3.970331 3.455538 -42.359325 -4.287534 0.604102 2.799056 -1.698390 -10.422521 17.766970 0.000000 0.000000 0.000000 -2.069220 -0.329300 29.986718 3.232282 -1.101494 -4.278224 -10.749517 11.127411 6.212398 19.498663 -7.105248 -22.084443 0.000000 0.000000 0.000000 13.975624 -37.307626 11.078238 15.719872 -53.110242 -13.242792 53.733522 -9.718698 -3.730975 0.000000 0.000000 0.000000 -19.823090 18.266420 4.531906 30.732082 66.094890 19.106145 -66.131310 14.324496 -3.513194 0.000000 0.000000 0.000000 
0.004381 0.944000 -0.098776 -0.190185 -2.288406 34.278077 9.721966 -0.199392 -49.853694 -0.368927 -0.202428 8.882027 -4.890756 -1.631163 18.160806 0.000000 0.000000 0.000000 -3.887998 3.446289 -42.203764 -4.089182 0.653277 3.707131 -2.130999 -10.959463 16.742063 0.000000 0.000000 0.000000 -2.071762 -0.337329 29.757558 3.193761 -1.086729 -4.276814 -10.677158 11.235709 6.077232 19.257314 -6.991625 -21.984848 0.000000 0.000000 0.000000 13.662472 -37.225032 11.095288 15.052234 -52.928160 -12.885003 54.685957 -10.206463 -4.095780 0.000000 0.000000 0.000000 -19.395746 18.762175 4.723436 33.066217 66.412882 20.793570 -66.990224 13.833683 -3.263013 0.000000 0.000000 0.000000 
0.004236 0.943960 -0.096112 0.072135 -2.093040 33.464317 9.438875 -0.363371 -49.582493 -0.513613 -0.192276 9.477356 -5.163840 -2.059016 18.048688 0.000000 0.000000 0.000000 -3.895114 3.330069 -41.237472 -3.660394 0.623467 3.994990 -2.777938 -11.922817 16.029430 0.000000 0.000000 0.000000 -1.934760 -0.406246 29.240178 3.102437 -1.078059 -3.880733 -10.793738 10.779883 5.650628 19.116221 -6.905554 -22.092466 0.000000 0.000000 0.000000 12.721360 -37.349502 11.255443 13.265791 -52.753453 -11.868452 55.969308 -10.668566 -4.471860 0.000000 0.000000 0.000000 -18.979230 19.599814 5.019628 34.162951 66.522341 21.398828 -67.446382 13.104904 -2.935034 0.000000 0.000000 0.000000 
0.004040 0.943946 -0.093296 0.576201 -1.732602 32.753673 8.932481 -0.661539 -49.167668 -0.724176 -0.174145 10.223052 -5.295262 -2.529782 17.251264 0.000000 0.000000 0.000000 -4.119418 3.161161 -40.683210 -3.408675 0.650733 4.792020 -3.624948 -13.270519 15.466991 0.000000 0.000000 0.000000 -1.925792 -0.434680 28.480820 3.063832 -1.068596 -3.823450 -10.909086 10.592911 5.530084 19.174895 -6.867213 -22.349816 0.000000 0.000000 0.000000 11.781429 -37.471618 11.410982 12.044280 -53.121709 -11.372157 56.818084 -12.029549 -5.269923 0.000000 0.000000 0.000000 -18.705238 19.901492 5.105607 36.280196 66.240433 22.637642 -68.118249 13.281266 -3.098666 0.000000 0.000000 0.000000 
0.003875 0.944512 -0.089919 1.079139 -1.387246 31.923221 8.286332 -0.997339 -48.616117 -0.796323 -0.185189 11.093203 -5.203430 -2.719858 16.286570 0.000000 0.000000 0.000000 -4.304412 2.957274 -39.367439 -3.324741 0.634486 4.712270 -4.106796 -13.948465 14.906830 0.000000 0.000000 0.000000 -1.522364 -0.593682 27.411123 2.724166 -0.957469 -3.496843 -11.348910 9.690419 4.905231 18.875253 -6.750877 -22.325163 0.000000 0.000000 0.000000 9.636349 -37.684735 11.808071 9.549643 -52.849255 -9.866401 56.683176 -14.208449 -6.327370 0.000000 0.000000 0.000000 -18.257919 20.858147 5.461980 37.373914 66.433488 23.191047 -67.886508 12.904033 -3.056969 0.000000 0.000000 0.000000 
0.003641 0.944655 -0.085755 1.426987 -1.386186 30.848908 7.903046 -1.148568 -47.276289 -1.184733 -0.115426 11.510133 -5.238653 -3.151763 15.392489 0.000000 0.000000 0.000000 -4.193719 2.885878 -38.101820 -3.428844 0.656225 4.813705 -4.502704 -14.621268 14.920965 0.000000 0.000000 0.000000 -1.317536 -0.641659 26.343657 1.955698 -0.674296 -3.189390 -11.405982 9.463466 4.262847 18.358172 -6.647803 -21.766572 0.000000 0.000000 0.000000 7.247596 -37.883794 12.248222 6.339305 -53.136480 -8.307138 56.595796 -18.159582 -8.318281 0.000000 0.000000 0.000000 -17.652710 21.276668 5.668186 38.789093 65.552807 23.535128 -66.589331 14.405005 -4.021862 0.000000 0.000000 0.000000 
